# xmcd
#
# Track frame offsets:
#	150
#	5759
#	20511
#	30692
#	39755
#	50973
#	59997
#	74534
#	88365
#	98182
#	107025
#	121865
#	136442
#	151321
#	162004
#	186912
#	197899
#	209655
#	219321
#	236062
#
# Disc length: 3277 seconds
#
# Revision: 0
# Processed by: cddbd v1.5.2PL0 Copyright (c) Steve Scherf et al.
# Submitted via: audiograbber 1.83.01
#
DISCID=2f0ccb14
DTITLE=Various Artist - Western-Hits Vol. 13 [CD 1)
DYEAR=1999
DGENRE=Country
TTITLE0=Bob Wills and His Texas Playboys - Billy In The Low Ground [mono]
TTITLE1=Connie Smith - Did We Have To Come This Far (To Say Goodbye) [live]
TTITLE2=Conway Twitty - Let Me Be The Judge
TTITLE3=Don Williams and The Pozo Seco Singers - In My Life
TTITLE4=Kitty Wells - Mommy For A Day
TTITLE5=Mel Tillis - Send Me Down To Tucson [live]
TTITLE6=Nitty Gritty Dirt Band - Home Again In My Heart [live]
TTITLE7=Porter Wagoner - Nothing Between
TTITLE8=Ralph Stanley - Leaning On Jesus
TTITLE9=T.G. Sheppard - I'll Be Coming Back For More [live]
TTITLE10=Tammy Wynette - Crying In The Rain [live]
TTITLE11=Terri Gibbs - Free And Easy
TTITLE12=Tina Turner - Good Hearted Woman
TTITLE13=Freddy Fender - Wild Side Of Life
TTITLE14=Dottie West - An American Trilogy [live]
TTITLE15=Gene Watson - Farewell Party [live]
TTITLE16=George Jones - I Can't Change Overnight [mono]
TTITLE17=Glenn Yarbrough - Suspiros del Chanchamayo [mono]
TTITLE18=Johnny Lee - Your Song
TTITLE19=Willie Nelson - I Didn't Sleep A Wink [mono]
EXTD=
EXTT0=
EXTT1=
EXTT2=
EXTT3=
EXTT4=
EXTT5=
EXTT6=
EXTT7=
EXTT8=
EXTT9=
EXTT10=
EXTT11=
EXTT12=
EXTT13=
EXTT14=
EXTT15=
EXTT16=
EXTT17=
EXTT18=
EXTT19=
PLAYORDER=
